<svg xmlns="http://www.w3.org/2000/svg" width="32" height="32" viewBox="0 0 32 32">
  <defs>
    <linearGradient id="g" x1="0" y1="0" x2="1" y2="1">
      <stop offset="0" stop-color="#3b82f6"/>
      <stop offset="1" stop-color="#a855f7"/>
    </linearGradient>
  </defs>
  <rect width="32" height="32" rx="8" fill="url(#g)"/>
  <g fill="none" stroke="#fff" stroke-width="1.8" stroke-linecap="round" stroke-linejoin="round">
    <!-- open book: spine in the center, two leaves opening out -->
    <path d="M16 9c-2-1.4-4.6-2-7-2-1 0-1.8.1-2 .2v15c.2-.1 1-.2 2-.2 2.4 0 5 .6 7 2"/>
    <path d="M16 9c2-1.4 4.6-2 7-2 1 0 1.8.1 2 .2v15c-.2-.1-1-.2-2-.2-2.4 0-5 .6-7 2"/>
    <path d="M16 9v15"/>
  </g>
</svg>
